<svg id="Capa_1" enable-background="new 0 0 511.995 511.995" height="512" viewBox="0 0 511.995 511.995" width="512" xmlns="http://www.w3.org/2000/svg"><path d="m200.022 257.128c-14.084 0-28.169 5.36-38.892 16.079-6.748 6.745-11.511 14.939-14.031 23.875h105.847c-2.52-8.936-7.284-17.13-14.031-23.875-10.723-10.719-24.808-16.079-38.893-16.079z"/><path d="m161.131 350.958c21.446 21.439 56.34 21.438 77.784 0 6.747-6.745 11.511-14.94 14.031-23.876h-105.847c2.521 8.936 7.284 17.13 14.032 23.876z"/><path d="m473.182 40.358c-19.867-20.142-45.045-33.375-72.809-38.271-27.117-4.78-54.652-1.315-79.631 10.022-13.772 6.251-23.611 18.894-26.321 33.82-2.73 15.039 2.087 30.463 12.887 41.26 13.595 13.594 34.437 17.428 51.858 9.544 15.975-7.231 35.064-3.817 47.495 8.502 7.954 7.882 12.32 18.479 12.294 29.84-.027 11.914-4.759 23.106-13.321 31.513-34.087 33.466-60.866 34.246-92.431 2.692l-33.745-33.736c-26.295-26.286-69.075-26.286-95.368 0l-167.378 167.333c-10.757 10.754-16.681 25.053-16.681 40.262s5.924 29.508 16.681 40.263l111.976 111.945c11.103 11.099 25.686 16.648 40.269 16.648s29.166-5.549 40.269-16.648l262.339-262.266c53.226-53.212 53.952-139.667 1.617-192.723zm-213.056 331.816c-16.57 16.566-38.337 24.849-60.102 24.849-21.767 0-43.533-8.283-60.104-24.849-16.055-16.051-24.897-37.392-24.897-60.091 0-22.7 8.843-44.041 24.897-60.092 33.141-33.132 87.064-33.13 120.206.001 16.055 16.05 24.897 37.391 24.897 60.091 0 22.699-8.843 44.04-24.897 60.091z"/></svg>