<svg xmlns="http://www.w3.org/2000/svg" width="311.957" height="65.464" viewBox="0 0 311.957 65.464">
  <g id="Group_119" data-name="Group 119" transform="translate(-1.109 -17.512)">
    <path id="Path_1632" data-name="Path 1632" d="M162.864,44.3C164.7,38,172.5,36,182.435,36c7.951,0,16.055,1.2,23.852,2.4,4.74.7,9.939,1.6,15.749,2.6,14.373,2.6,31.039,4.9,43.271,3.9a54.987,54.987,0,0,0,5.657-.8c-2.905-.1-5.657-.3-8.41-.5-15.749-1.2-30.886-3.9-46.176-7.1a202.619,202.619,0,0,0-27.063-3.9c-8.562-.6-17.125-.2-23.7,2.8-6.116,2.7-10.244,9.9-3.67,16.1,9.174-8.1,22.629-13.6,36.849-10.3-6.116-1-14.22-.1-17.125,3.7-2.141,3-.917,6.2,3.211,8.1s10.7,2.8,18.042.8a35.594,35.594,0,0,1-21.253.9c-9.786-3-6.881-10.2,1.835-12.8a42.559,42.559,0,0,0-20.183,10.7,34.639,34.639,0,0,0,10.7,5,53.685,53.685,0,0,0,13.3,2.3c8.562.4,17.125-.8,23.547-4.7,4.434-3.4,2.752-7.6-3.67-9.4-5.352-1.5-13.761-.1-16.055,3-2.446-1-.917-4.4,5.046-5.3a24.71,24.71,0,0,1,14.831,2.8c2.141,1.3,3.517,2.9,3.67,5,.459,5.3-6.422,9.1-12.232,10.5-16.207,3.7-32.109-1.5-39.754-8.5a37.665,37.665,0,0,0-4.434,5.2c3.211,4.6,5.2,9.4,5.2,13.6a13.122,13.122,0,0,1-.612,4.3c-3.058,8.9-9.174,8.7-12.079-.2a12.316,12.316,0,0,1-.612-4.1c0-4.3,1.988-9.1,5.2-13.7a37.665,37.665,0,0,0-4.434-5.2c-7.645,7-23.547,12.2-39.754,8.5-5.81-1.3-12.691-5.2-12.232-10.5.153-2.1,1.529-3.7,3.67-5a24.71,24.71,0,0,1,14.831-2.8c5.81.9,7.339,4.3,5.046,5.3-2.294-3-10.7-4.5-16.055-3-6.422,1.8-8.1,6.1-3.67,9.4,6.422,3.9,15.137,5.1,23.547,4.7a53.685,53.685,0,0,0,13.3-2.3,34.639,34.639,0,0,0,10.7-5,42.559,42.559,0,0,0-20.183-10.7c8.562,2.6,11.62,9.7,1.835,12.8a34.824,34.824,0,0,1-21.253-.9c11.62,3.1,21.406-.9,22.171-4.9,1.682-7.6-9.633-8.7-18.042-7.8,14.22-3.3,27.675,2.2,36.849,10.3,6.575-6.2,2.6-13.4-3.67-16.1-6.575-3-15.137-3.3-23.7-2.8A202.618,202.618,0,0,0,97.27,36.3c-15.29,3.1-30.427,5.9-46.176,7.1-2.752.2-5.657.4-8.41.5a34.223,34.223,0,0,0,5.657.8c12.079,1.1,28.745-1.3,43.271-3.9,5.81-1,11.009-1.9,15.749-2.6,7.8-1.2,15.749-2.4,23.852-2.4,9.939,0,17.736,2,19.571,8.3-14.678-7.7-27.828-6.1-42.353-4.3C91.46,42.7,73.723,46.2,61.8,46.3c-7.033,0-14.526-.5-20.947-2.3-13.149.3-26.452-1-34.1-6.4,6.422,4,17.431,5,29.357,4.7a23.613,23.613,0,0,1-4.128-2.5C20.514,39.7,9.5,37.8,3.695,32,1.4,29.7.484,27.1,1.554,24.4c2.141-5.5,13-7.7,20.183-5.1a13.812,13.812,0,0,1,5.5,3.3c1.682,1.7,3.211,3.2,7.492,2.7-5.2,1.9-11.468-1.4-17.125-3.2s-11.926-2.2-15.6,2.7c-2.141,5.1,3.823,9.5,9.633,11.6,15.443,5.5,42.048.1,57.949-2.7,16.666-2.9,32.415-7.1,50-7.5,12.691-.3,27.522,1.6,33.179,7.6-4.74-4.8-20.336-7.4-39.3-5.6-14.22,1.4-28.745,5.2-43.882,7.7-7.492,1.2-22.629,3.8-37,3.8a21.059,21.059,0,0,0,4.434,2.5c5.046-.2,10.091-.6,15.137-1.1,14.373-1.6,28.745-4.2,42.812-7,9.786-1.9,19.571-3.5,29.816-3.7a58.619,58.619,0,0,1,17.278,1.9c9.786,2.8,13,6.6,13.914,11.3.459,2.7-.764,5.6-3.364,8.3a47.858,47.858,0,0,1,4.434,4.7,47.86,47.86,0,0,1,4.434-4.7c-2.6-2.7-3.823-5.6-3.364-8.3.765-4.7,4.128-8.4,13.914-11.3a56,56,0,0,1,17.278-1.9,161.96,161.96,0,0,1,29.663,3.7c13.914,2.7,28.44,5.4,42.812,7,5.046.6,10.091,1,15.137,1.1a21.058,21.058,0,0,0,4.434-2.5c-14.373.1-29.51-2.6-36.849-3.8-15.137-2.5-29.663-6.4-43.882-7.7-18.807-1.8-34.4.7-39.448,5.4,5.657-6,20.489-7.9,33.179-7.6,17.736.4,33.332,4.6,50,7.5,15.9,2.8,42.506,8.1,57.949,2.7,5.657-2,11.62-6.5,9.633-11.6-3.67-4.9-9.786-4.5-15.443-2.7s-11.926,5.1-17.125,3.2c4.281.5,5.81-1,7.492-2.7a15.173,15.173,0,0,1,5.5-3.3c7.186-2.6,17.889-.4,20.183,5.1,1.223,2.7.153,5.3-2.141,7.6-5.81,5.8-16.666,7.7-28.134,7.8a18.781,18.781,0,0,1-4.128,2.5c11.926.3,22.935-.7,29.2-4.6-7.492,5.4-20.794,6.7-34.1,6.4-6.422,1.9-13.914,2.3-20.947,2.3-11.926,0-29.663-3.5-46.635-6.5-14.984-1.5-27.981-3.1-42.812,4.6ZM156.9,60.5c-2.446,4.1-3.823,8.1-3.823,11.5a7.882,7.882,0,0,0,.764,3.9c1.682,3.8,4.434,4,6.269.1a10.447,10.447,0,0,0,.765-3.9A25.979,25.979,0,0,0,156.9,60.5Zm-5.352-3.8c-6.269,4.2-13.608,6.6-22.629,7.6-13,1.5-32.874-2-33.027-13,0-3.2,3.058-6.7,9.939-8.4-7.339,1.3-11.009,4.5-11.773,8-.612,2.5.459,5.1,2.446,7.3,6.575,7.2,21.559,9,33.485,7.6a42.756,42.756,0,0,0,10.55-2.5c-2.446,1.8-3.975,3.8-3.211,5.7,8.868-.5,10.244-7.1,14.22-12.3Zm10.856,0c3.823,5.2,5.352,11.8,14.373,12.4.764-1.9-.765-3.9-3.211-5.7a45.789,45.789,0,0,0,10.55,2.5c11.926,1.4,26.911-.4,33.485-7.6a8.523,8.523,0,0,0,2.446-7.3c-.764-3.5-4.434-6.7-11.773-8,7.033,1.7,10.091,5.2,9.939,8.4-.153,11-20.03,14.5-33.027,13C176.014,63.2,168.674,60.9,162.405,56.7Z" transform="translate(0)"/>
    <g id="Group_118" data-name="Group 118" transform="translate(1.262 17.512)">
      <path id="Path_1633" data-name="Path 1633" d="M124.886,75.8a13.517,13.517,0,0,0,.612-4.3c0-4.3-1.988-9.1-5.2-13.6a42.427,42.427,0,0,1,25.229-16.6c-8.562,2.6-11.62,9.7-1.835,12.8a34.824,34.824,0,0,0,21.253-.9c-7.339,2-13.914,1.1-18.042-.8s-5.5-5.1-3.211-8.1c2.905-3.9,11.009-4.7,17.125-3.7-16.972-4-33.179,4.8-41.895,15.5-8.715-10.7-24.77-19.5-41.895-15.5,8.41-.9,19.724.2,18.042,7.8-.917,4-10.55,8-22.171,4.9a35.594,35.594,0,0,0,21.253.9c9.786-3,6.728-10.2-1.835-12.8A42.427,42.427,0,0,1,117.547,58c-3.211,4.6-5.2,9.4-5.2,13.7a12.315,12.315,0,0,0,.612,4.1c2.752,8.7,9.021,8.8,11.926,0Zm-5.963-16c2.446,4.1,3.823,8.2,3.823,11.6a10.055,10.055,0,0,1-.765,3.9c-1.682,3.9-4.587,3.7-6.269-.1a10.055,10.055,0,0,1-.765-3.9A26.03,26.03,0,0,1,118.923,59.8Z" transform="translate(36.716 -17.512)"/>
      <g id="Group_117" data-name="Group 117">
        <g id="Group_115" data-name="Group 115">
          <path id="Path_1634" data-name="Path 1634" d="M140.54,43.6c-1.835-6.2-9.633-8.3-19.571-8.3-7.951,0-16.055,1.2-23.852,2.4-4.74.7-9.939,1.6-15.749,2.6C67,42.9,50.329,45.2,38.1,44.2c-6.269-.6-12.538-2.3-16.666-5.8-.612-.5-.765-.2-.612,0,6.881,6.1,19.418,7.4,30.58,7.4,11.926,0,29.663-3.5,46.635-6.5C112.712,37.5,125.709,35.9,140.54,43.6Z" transform="translate(9.136 -17.512)"/>
          <path id="Path_1635" data-name="Path 1635" d="M3.795,31.3C1.5,29,.584,26.4,1.654,23.7c2.294-5.5,13-7.7,20.183-5.1a13.812,13.812,0,0,1,5.5,3.3c1.682,1.7,3.211,3.2,7.492,2.7-5.2,1.9-11.468-1.4-17.125-3.2-5.657-1.9-11.926-2.3-15.6,2.6-2.141,5.1,3.823,9.5,9.633,11.6,15.443,5.4,42.048.1,57.949-2.7,16.666-2.9,32.415-7.1,50-7.5,12.691-.3,27.522,1.6,33.179,7.6-4.893-4.7-20.489-7.3-39.448-5.4C99.2,29,84.679,32.8,69.542,35.3,55.934,37.5,16.944,44.3,3.795,31.3Z" transform="translate(-1.209 -17.512)"/>
          <path id="Path_1636" data-name="Path 1636" d="M109.331,61c-5.81-1.3-12.691-5.2-12.232-10.5.153-2.1,1.529-3.7,3.67-5A24.71,24.71,0,0,1,115.6,42.7c5.81.9,7.339,4.3,5.046,5.3-2.294-3-10.7-4.4-16.055-3-6.422,1.8-8.1,6.1-3.67,9.4,6.422,3.9,15.137,5.1,23.547,4.7a53.685,53.685,0,0,0,13.3-2.3c21.253-6.5,16.819-18.5,8.41-22.3-6.575-3-15.137-3.3-23.7-2.8a202.618,202.618,0,0,0-27.063,3.9c-15.29,3.1-30.427,5.9-46.176,7.1C33.034,43.9,14.38,43.6,4.9,36.8c9.021,5.6,27.981,5.3,45.106,3.4,14.373-1.6,28.745-4.2,42.812-7,9.786-1.9,19.571-3.5,29.816-3.7a58.619,58.619,0,0,1,17.278,1.9c9.786,2.8,13,6.6,13.914,11.3C155.507,53.1,132.725,66.4,109.331,61Z" transform="translate(0.744 -17.512)"/>
          <path id="Path_1637" data-name="Path 1637" d="M119.484,56c-3.823,5.2-5.352,11.8-14.373,12.4-.764-2,.765-3.9,3.211-5.7a47.773,47.773,0,0,1-10.55,2.5c-11.926,1.4-26.911-.4-33.485-7.6a8.523,8.523,0,0,1-2.446-7.3c.765-3.5,4.434-6.7,11.773-8-6.881,1.6-9.939,5.2-9.939,8.3.153,11,20.03,14.5,33.027,13C105.723,62.6,113.062,60.2,119.484,56Z" transform="translate(30.804 -17.512)"/>
        </g>
        <g id="Group_116" data-name="Group 116" transform="translate(156.758)">
          <path id="Path_1638" data-name="Path 1638" d="M106.9,43.6c1.835-6.2,9.633-8.3,19.571-8.3,7.951,0,16.055,1.2,23.852,2.4,4.74.7,9.939,1.6,15.749,2.6,14.373,2.6,31.039,4.9,43.271,3.9,6.269-.6,12.538-2.3,16.666-5.8.612-.5.764-.2.612,0-6.881,6.1-19.418,7.4-30.58,7.4-11.926,0-29.663-3.5-46.635-6.5C134.728,37.5,121.731,35.9,106.9,43.6Z" transform="translate(-102.056 -17.512)"/>
          <path id="Path_1639" data-name="Path 1639" d="M254.731,31.3c2.294-2.3,3.211-4.9,2.141-7.6-2.141-5.5-13-7.7-20.183-5.1a13.812,13.812,0,0,0-5.5,3.3c-1.682,1.7-3.211,3.2-7.492,2.7,5.2,1.9,11.468-1.4,17.125-3.2s11.926-2.2,15.443,2.7c2.141,5.1-3.823,9.5-9.633,11.6-15.443,5.5-42.048.1-57.949-2.7-16.666-2.9-32.415-7.1-50-7.5-12.691-.3-27.522,1.6-33.179,7.6,4.893-4.7,20.489-7.3,39.448-5.4,14.22,1.4,28.745,5.2,43.882,7.7C202.592,37.5,241.582,44.3,254.731,31.3Z" transform="translate(-102.797 -17.512)"/>
          <path id="Path_1640" data-name="Path 1640" d="M148.177,61c5.81-1.3,12.538-5.2,12.232-10.5-.153-2.1-1.529-3.7-3.67-5a24.71,24.71,0,0,0-14.831-2.8c-5.81.9-7.339,4.3-5.046,5.3,2.141-3,10.7-4.4,16.055-3,6.422,1.8,8.1,6.1,3.67,9.4-6.422,3.9-15.137,5.1-23.547,4.7a53.685,53.685,0,0,1-13.3-2.3c-21.406-6.5-16.819-18.5-8.41-22.3,6.575-3,15.137-3.3,23.7-2.8a202.618,202.618,0,0,1,27.063,3.9c15.29,3.1,30.427,5.9,46.176,7.1,16.207,1.2,34.861.9,44.341-5.9-9.021,5.6-27.981,5.3-45.106,3.4-14.22-1.6-28.745-4.2-42.812-7-9.786-1.9-19.571-3.5-29.663-3.7a58.619,58.619,0,0,0-17.278,1.9c-9.786,2.8-13,6.6-13.914,11.3C102,53.1,124.783,66.4,148.177,61Z" transform="translate(-103.732 -17.512)"/>
          <path id="Path_1641" data-name="Path 1641" d="M106.6,56c3.823,5.2,5.352,11.8,14.373,12.4.764-2-.765-3.9-3.211-5.7a45.789,45.789,0,0,0,10.55,2.5c11.926,1.4,26.911-.4,33.485-7.6a8.523,8.523,0,0,0,2.446-7.3c-.764-3.5-4.434-6.7-11.773-8,7.033,1.7,10.091,5.2,9.939,8.4-.153,11-20.03,14.5-33.027,13C120.208,62.6,112.869,60.2,106.6,56Z" transform="translate(-102.215 -17.512)"/>
        </g>
      </g>
    </g>
  </g>
</svg>
