<svg id="Capa_1" enable-background="new 0 0 512 512" height="512" viewBox="0 0 512 512" width="512" xmlns="http://www.w3.org/2000/svg"><g><path d="m278.341 152.618-87.75-60c-9.939-6.795-23.466.34-23.466 12.382v120c0 12.042 13.527 19.178 23.466 12.382l87.75-60c8.709-5.955 8.697-18.817 0-24.764zm-81.216 43.954v-63.145l46.174 31.573z"/><path d="m487 239h-35v-209c0-16.542-13.458-30-30-30h-392c-16.542 0-30 13.458-30 30v270c0 16.542 13.458 30 30 30h181v30h-39c-8.284 0-15 6.716-15 15s6.716 15 15 15h108c8.284 0 15-6.716 15-15s-6.716-15-15-15h-39v-30h90v91.5c0 49.902 40.598 90.5 90.5 90.5s90.5-40.598 90.5-90.5v-157.5c0-13.785-11.215-25-25-25zm-457 61v-270h392v209h-66c-13.785 0-25 11.215-25 25v36zm452 121.5c0 33.36-27.14 60.5-60.5 60.5s-60.5-27.14-60.5-60.5v-152.5h121z"/><circle cx="448" cy="318" r="15"/><circle cx="395" cy="318" r="15"/><path d="m406 383h-5c-8.284 0-15 6.716-15 15s6.716 15 15 15h5v5c0 8.284 6.716 15 15 15s15-6.716 15-15v-5h5c8.284 0 15-6.716 15-15s-6.716-15-15-15h-5v-5c0-8.284-6.716-15-15-15s-15 6.716-15 15z"/></g></svg>