<svg id="Capa_1" enable-background="new 0 0 512 512" height="512" viewBox="0 0 512 512" width="512" xmlns="http://www.w3.org/2000/svg"><g><path d="m380.309 223.594c-4.783-29.488-19.948-56.389-42.7-75.749-22.753-19.359-51.735-30.02-81.608-30.02s-58.855 10.661-81.608 30.02c-22.752 19.359-37.917 46.26-42.7 75.749l-27.701 170.754h-46.837v117.652h397.689v-117.652h-46.835zm-219.004 4.803c7.572-46.687 47.398-80.572 94.695-80.572s87.123 33.886 94.695 80.572l26.921 165.951h-243.232zm263.54 195.951v57.652h-337.69v-57.652z"/><path d="m241.032 0h30v68.951h-30z"/><path d="m336.971 50.442h68.951v30h-68.951z" transform="matrix(.501 -.866 .866 .501 128.854 354.239)"/><path d="m421.382 135.023h68.951v30h-68.951z" transform="matrix(.867 -.499 .499 .867 -14.07 247.393)"/><path d="m125.554 30.966h30v68.951h-30z" transform="matrix(.866 -.501 .501 .866 -13.881 79.148)"/><path d="m41.143 115.547h30v68.951h-30z" transform="matrix(.499 -.867 .867 .499 -101.888 123.844)"/><path d="m241 213.359h30v92.152h-30z"/><path d="m240.124 325.271h31.408v31.408h-31.408z"/></g></svg>