<svg xmlns="http://www.w3.org/2000/svg" width="60" height="27.291" viewBox="0 0 60 27.291">
  <g id="shoes" transform="translate(-34.252 -157.525)">
    <path id="Path_1752" data-name="Path 1752" d="M105.373,185.4c-1.7-.133-3.454-.271-5.089-.543a12.242,12.242,0,0,1-1.238-.28l-2.135,2.135-1.525-1.525,1.393-1.393c-.985-.4-2.023-.873-3.094-1.4l-2.165,2.165-1.525-1.525,1.675-1.675c-1.415-.749-2.862-1.555-4.3-2.357l-2.323,2.323-1.525-1.525,1.889-1.889c-1.491-.826-2.994-1.64-4.352-2.3l-2.482,2.482-1.525-1.525,1.9-1.9a6.8,6.8,0,0,0-2.215-.573c-1.625,0-2.464.751-3.527,1.7a8.35,8.35,0,0,1-6.177,2.611c-1.91,0-5.487-.872-7.988-6.709a.647.647,0,0,0-1.229.384c1,4.11.159,10.88-.281,13.774a78.774,78.774,0,0,1,10.24-.012l6.043-6.043a1.078,1.078,0,0,1,1.525,0l3.235,3.235a1.078,1.078,0,0,1,0,1.525l-2.8,2.8c.827.264,1.707.528,2.632.788l5.118-5.118a1.078,1.078,0,0,1,1.525,0l3.235,3.235a1.078,1.078,0,0,1,0,1.525l-2.17,2.17a72.478,72.478,0,0,0,13.269,1.381,45.415,45.415,0,0,0,15.015-2.859c-.545-2.244-3.859-2.677-9.025-3.082Z" transform="translate(-20.146 -11.914)" fill="#222428"/>
    <path id="Path_1753" data-name="Path 1753" d="M190.014,161.449c-1.855-2.218-3.965-4.547-5.129-3.771a3.845,3.845,0,0,0-1.8,2.751,6.124,6.124,0,0,1,2.28-.413A12.349,12.349,0,0,1,190.014,161.449Z" transform="translate(-128.773)" fill="#222428"/>
    <path id="Path_1754" data-name="Path 1754" d="M233.716,275.313l-3.472,3.472c.9.225,1.821.443,2.769.651l2.413-2.413Z" transform="translate(-169.575 -101.911)" fill="#222428"/>
    <path id="Path_1755" data-name="Path 1755" d="M53.409,301.859c.443-.014.793-.026,1.027-.026,2.274,0,4.727.188,7.567.4,3.921.3,8.8.674,15.077.674,8.429,0,12.687-2.13,14.775-3.915a8.808,8.808,0,0,0,1.589-1.756,46.456,46.456,0,0,1-14.207,2.436A86.433,86.433,0,0,1,54.1,295.309c-5.412-1.8-14.982-1.244-17.351-1.07l-2.492,4.153c4.87,3.931,15.545,3.585,19.157,3.468Z" transform="translate(0 -118.096)" fill="#222428"/>
    <path id="Path_1756" data-name="Path 1756" d="M158.059,251.313l-4.041,4.042a28.946,28.946,0,0,1,2.886.533l2.865-2.865Z" transform="translate(-103.623 -81.146)" fill="#222428"/>
  </g>
</svg>
